<?xml version="1.0" encoding="UTF-8"?>
<!DOCTYPE svg PUBLIC "-//W3C//DTD SVG 1.1//EN" "http://www.w3.org/Graphics/SVG/1.1/DTD/svg11.dtd">
<!-- Creator: CorelDRAW -->
<svg xmlns="http://www.w3.org/2000/svg" xml:space="preserve" width="110mm" height="200mm" version="1.1" style="shape-rendering:geometricPrecision; text-rendering:geometricPrecision; image-rendering:optimizeQuality; fill-rule:evenodd; clip-rule:evenodd"
viewBox="0 0 11000 20000"
 xmlns:xlink="http://www.w3.org/1999/xlink"
 xmlns:xodm="http://www.corel.com/coreldraw/odm/2003">
 <defs>
  <style type="text/css">
   <![CDATA[
    .fil0 {fill:#5F5D5D}
    .fil1 {fill:#FEFEFE;fill-rule:nonzero}
   ]]>
  </style>
 </defs>
 <g id="Layer_x0020_1">
  <metadata id="CorelCorpID_0Corel-Layer"/>
  <rect class="fil0" x="-3.33" y="7.59" width="11000" height="20000"/>
  <g id="_2572368436128">
   <path class="fil1" d="M2046.14 9405.69c0,22.05 3.68,36.91 11.03,44.42 7.35,7.51 22.21,11.19 44.74,11.19l28.6 0 0 22.05 -257.91 0 0 -22.05 30.04 0c21.9,0 36.44,-3.68 43.63,-11.03 7.19,-7.35 10.7,-22.21 10.7,-44.58l0 -517.74c0,-22.37 -3.51,-37.23 -10.7,-44.58 -7.19,-7.35 -21.73,-11.02 -43.63,-11.02l-30.04 0 0 -21.1 257.91 0 0 21.1 -28.6 0c-22.53,0 -37.39,3.67 -44.74,11.18 -7.35,7.51 -11.03,22.37 -11.03,44.42l0 517.74z"/>
   <path id="_1" class="fil1" d="M2167.9 9483.35l0 -19.18 244.33 -432.4c-3.2,0 -7.83,-0.16 -14.07,-0.48 -6.23,-0.32 -10.7,-0.48 -13.58,-0.48 -55.77,0 -97.47,9.75 -124.64,29.4 -27.32,19.66 -44.9,51.94 -52.73,97.16l-19.18 0 5.6 -146.69 310.8 0 0 19.17 -245.77 431.45 54.81 0c53.69,0 93.16,-12.47 118.57,-37.23 25.57,-24.77 43.15,-68.24 53.21,-130.56l18.22 0 -6.07 189.84 -329.5 0z"/>
   <path id="_2" class="fil1" d="M2543.9 9483.35l0 -19.18 244.33 -432.4c-3.2,0 -7.83,-0.16 -14.07,-0.48 -6.23,-0.32 -10.7,-0.48 -13.58,-0.48 -55.77,0 -97.47,9.75 -124.64,29.4 -27.32,19.66 -44.9,51.94 -52.73,97.16l-19.18 0 5.6 -146.69 310.8 0 0 19.17 -245.77 431.45 54.81 0c53.69,0 93.16,-12.47 118.57,-37.23 25.57,-24.77 43.15,-68.24 53.21,-130.56l18.22 0 -6.07 189.84 -329.5 0z"/>
   <path id="_3" class="fil1" d="M3059.88 9375.01c0,28.44 3.68,48.58 10.87,60.56 7.19,11.99 18.85,18.06 35.15,18.06 28.13,0 49.7,-14.38 64.72,-42.99 15.02,-28.76 22.53,-69.99 22.53,-124l0 -201.98c0,-23.81 -2.88,-38.67 -8.47,-44.74 -5.59,-6.07 -18.06,-9.11 -37.39,-9.11l-15.5 0 0 -20.13 17.26 0c19.33,0 39.63,-0.64 61.04,-1.92 21.25,-1.28 43.78,-3.04 67.43,-5.59l0 406.04c0,23.8 2.88,38.67 8.47,44.9 5.59,6.07 18.06,9.11 37.39,9.11l15.5 0 0 20.13 -140.62 0 0 -83.57c-11.5,30.36 -27.64,53.69 -48.1,70.31 -20.45,16.46 -43.78,24.77 -70.15,24.77 -37.71,0 -64.87,-12.15 -81.01,-36.44 -16.3,-24.45 -24.45,-65.83 -24.45,-124.48l0 -249.28c0,-23.81 -2.88,-38.67 -8.63,-44.74 -5.75,-6.07 -18.22,-9.11 -37.39,-9.11l-15.34 0 0 -20.13 18.06 0c19.65,0 40.42,-0.64 62,-1.92 21.73,-1.28 43.94,-3.04 66.63,-5.59l0 371.84z"/>
   <path id="_4" class="fil1" d="M3584.33 9483.35l0 -22.05 7.51 0c28.12,0 47.78,-8.63 58.96,-25.73 11.35,-17.1 16.94,-48.9 16.94,-95.08l0 -458.13c0,-20.29 -3.04,-33.72 -8.95,-40.27 -5.91,-6.55 -19.49,-9.74 -40.75,-9.74l-33.71 0 0 -21.1 188.55 0 118.09 490.89 116.33 -490.89 191.6 0 0 21.1 -25.25 0c-22.21,0 -36.91,3.67 -44.26,11.18 -7.35,7.51 -11.03,22.37 -11.03,44.42l0 517.74c0,22.05 3.68,36.91 11.03,44.42 7.35,7.51 22.05,11.19 44.26,11.19l25.25 0 0 22.05 -248.32 0 0 -22.05 27.16 0c22.21,0 36.91,-3.68 44.27,-11.19 7.35,-7.51 11.02,-22.37 11.02,-44.42l0 -569.19 -156.12 646.85 -22.37 0 -158.04 -643.02 0 504c0,47.78 5.12,79.1 15.18,94.28 10.23,15.18 28.77,22.69 55.61,22.69l12.63 0 0 22.05 -195.59 0z"/>
   <path id="_5" class="fil1" d="M4245.08 9483.35l0 -22.05 15.34 0c19.49,0 31.96,-3.04 37.55,-9.11 5.59,-6.07 8.47,-20.93 8.47,-44.74l0 -322.79c0,-23.81 -2.88,-38.67 -8.47,-44.74 -5.59,-6.07 -18.06,-9.11 -37.55,-9.11l-15.34 0 0 -20.13 17.26 0c19.33,0 39.63,-0.64 60.88,-1.92 21.41,-1.28 43.94,-3.04 67.59,-5.59l0 404.28c0,23.81 2.88,38.67 8.47,44.74 5.59,6.07 18.06,9.11 37.39,9.11l14.54 0 0 22.05 -206.13 0zm47.94 -628.79c0,-14.54 4.95,-27.17 15.02,-37.4 9.9,-10.38 22.21,-15.5 36.59,-15.5 14.22,0 26.53,5.12 36.75,15.5 10.07,10.23 15.18,22.86 15.18,37.4 0,13.74 -5.11,25.88 -15.5,36.11 -10.22,10.39 -22.37,15.5 -36.43,15.5 -13.74,0 -25.89,-5.11 -36.11,-15.5 -10.39,-10.23 -15.5,-22.37 -15.5,-36.11z"/>
   <path id="_6" class="fil1" d="M4488.45 9483.35l0 -22.05 15.5 0c19.01,0 31.48,-3.04 37.23,-9.11 5.75,-6.07 8.63,-21.09 8.63,-44.74l0 -519.82c0,-23.33 -2.88,-38.19 -8.63,-44.26 -5.75,-6.07 -18.22,-9.11 -37.23,-9.11l-15.5 0 0 -20.13 17.25 0c19.5,0 39.79,-0.64 61.2,-1.92 21.42,-1.28 43.79,-3.04 67.28,-5.59l0 600.83c0,23.65 2.87,38.67 8.63,44.74 5.75,6.07 18.37,9.11 37.71,9.11l14.06 0 0 22.05 -206.13 0z"/>
   <path id="_7" class="fil1" d="M4732.78 9483.35l0 -22.05 15.5 0c19.01,0 31.48,-3.04 37.23,-9.11 5.75,-6.07 8.63,-21.09 8.63,-44.74l0 -519.82c0,-23.33 -2.88,-38.19 -8.63,-44.26 -5.75,-6.07 -18.22,-9.11 -37.23,-9.11l-15.5 0 0 -20.13 17.25 0c19.5,0 39.79,-0.64 61.2,-1.92 21.42,-1.28 43.79,-3.04 67.28,-5.59l0 600.83c0,23.65 2.87,38.67 8.63,44.74 5.75,6.07 18.37,9.11 37.71,9.11l14.06 0 0 22.05 -206.13 0z"/>
   <path id="_8" class="fil1" d="M5219.67 9191.88c-12.78,11.19 -30.52,21.9 -53.37,32.28 -22.69,10.23 -36.91,17.1 -42.5,20.62 -15.34,9.58 -26.05,22.05 -32.12,37.39 -6.07,15.18 -9.11,42.34 -9.11,81.33 0,29.57 4.79,52.1 14.22,67.76 9.59,15.5 23.33,23.33 41.39,23.33 23.17,0 42.5,-12.95 58.16,-38.83 15.5,-25.89 23.33,-59.13 23.33,-100.03l0 -123.85zm2.88 215.57c-11.98,26.52 -27.96,47.14 -48.26,61.68 -20.29,14.54 -42.82,21.89 -67.75,21.89 -34.04,0 -62.48,-12.46 -85.49,-37.39 -22.85,-25.09 -34.36,-56.25 -34.36,-93.8 0,-36.43 9.43,-65.52 28.29,-87.25 18.85,-21.73 52.89,-40.75 102.27,-57.37l6.07 -2.39c44.26,-14.38 76.38,-29.25 96.35,-44.91l0 -63.27c0,-30.05 -6.39,-52.1 -19.01,-66.16 -12.63,-14.06 -32.44,-21.09 -59.6,-21.09 -18.06,0 -33.08,3.51 -45.23,10.7 -11.98,7.19 -17.89,16.14 -17.89,26.85 0,4.95 7.83,11.35 23.81,19.18 15.97,7.82 23.8,20.77 23.8,38.83 0,14.06 -5.11,26.2 -15.65,36.11 -10.39,10.07 -23.02,15.02 -37.72,15.02 -17.25,0 -31.16,-5.91 -41.7,-17.58 -10.71,-11.66 -15.98,-27 -15.98,-45.7 0,-30.2 12.94,-54.81 38.83,-73.5 26.04,-18.7 60.4,-28.13 103.07,-28.13 52.57,0 90.28,10.87 113.29,32.6 22.85,21.73 34.36,58.48 34.36,110.26l0 257.91c0,20.29 1.91,34.83 5.91,43.94 3.83,9.11 9.91,13.58 18.37,13.58 10.87,0 18.7,-7.03 23.33,-21.09 4.64,-13.9 7.04,-38.35 7.04,-72.87l22.05 0 0 20.14c0,35.31 -6.55,62 -19.66,80.22 -13.1,18.05 -32.44,27.16 -58,27.16 -22.53,0 -40.59,-7.03 -54.33,-21.09 -13.75,-14.06 -22.53,-35 -26.21,-62.48z"/>
   <path id="_9" class="fil1" d="M5471.99 9046.15l-59.44 0 0 -35.47c35.63,-4 63.11,-21.1 82.45,-50.98 19.33,-30.04 31.48,-74.14 36.59,-132.15l24.77 0 0 183.13 88.21 0 0 35.47 -88.21 0 0 328.22c0,27.48 2.56,46.98 7.67,58.32 5.11,11.35 13.42,17.1 24.93,17.1 13.1,0 22.69,-7.19 28.6,-21.57 5.91,-14.38 8.79,-38.03 8.79,-71.11l0 -8.95 23.97 0 0 20.14c0,41.06 -7.83,72.38 -23.65,94.12 -15.82,21.57 -38.67,32.44 -68.55,32.44 -30.84,0 -52.89,-11.51 -66.16,-34.52 -13.26,-23.17 -19.97,-64.56 -19.97,-124.32l0 -289.87z"/>
   <path id="_10" class="fil1" d="M5704.81 9483.35l0 -22.05 15.34 0c19.49,0 31.96,-3.04 37.55,-9.11 5.59,-6.07 8.47,-20.93 8.47,-44.74l0 -322.79c0,-23.81 -2.88,-38.67 -8.47,-44.74 -5.59,-6.07 -18.06,-9.11 -37.55,-9.11l-15.34 0 0 -20.13 17.26 0c19.33,0 39.63,-0.64 60.88,-1.92 21.41,-1.28 43.94,-3.04 67.59,-5.59l0 404.28c0,23.81 2.88,38.67 8.47,44.74 5.59,6.07 18.06,9.11 37.39,9.11l14.54 0 0 22.05 -206.13 0zm47.94 -628.79c0,-14.54 4.95,-27.17 15.02,-37.4 9.9,-10.38 22.21,-15.5 36.59,-15.5 14.22,0 26.53,5.12 36.75,15.5 10.07,10.23 15.18,22.86 15.18,37.4 0,13.74 -5.11,25.88 -15.5,36.11 -10.22,10.39 -22.37,15.5 -36.43,15.5 -13.74,0 -25.89,-5.11 -36.11,-15.5 -10.39,-10.23 -15.5,-22.37 -15.5,-36.11z"/>
   <path id="_11" class="fil1" d="M6328.65 9118.06l54.33 0c53.05,0 90.92,-11.83 113.29,-35.32 22.53,-23.49 33.72,-62.64 33.72,-117.13 0,-47.45 -11.03,-81.65 -33.08,-102.58 -21.89,-21.1 -58.17,-31.64 -108.82,-31.64 -26.21,0 -42.67,3.03 -49.38,8.94 -6.71,5.92 -10.06,20.46 -10.06,43.95l0 233.78zm0 287.47c0,22.53 3.51,37.39 10.54,44.74 7.03,7.35 21.57,11.03 43.79,11.03l30.04 0 0 22.05 -257.91 0 0 -22.05 28.6 0c22.53,0 37.39,-3.68 44.74,-11.19 7.35,-7.51 11.03,-22.37 11.03,-44.58l0 -517.58c0,-22.05 -3.68,-36.91 -11.03,-44.42 -7.35,-7.51 -22.21,-11.5 -44.74,-12.14l-28.6 0 0 -20.14 250.88 0c43.62,0 77.5,2.72 101.31,8.15 23.97,5.43 44.9,14.54 62.96,27.33 19.01,14.06 34.03,31.64 44.9,52.41 11.02,20.93 16.46,43.14 16.46,66.47 0,41.71 -15.02,77.34 -44.91,106.91 -29.88,29.4 -71.26,49.05 -123.84,58.64 41.71,16.3 72.07,39.47 91.25,69.83 19.17,30.2 30.36,73.83 33.39,130.55 0,2.88 0.16,7.04 0.48,12.63 3.68,64.72 17.1,96.99 39.95,96.99 11.67,0 20.61,-5.75 26.85,-17.25 6.23,-11.67 9.42,-28.13 9.42,-49.7l0 -42.67 23.97 0 0 44.59c0,36.91 -7.99,65.19 -23.81,85.17 -15.97,19.81 -38.67,29.72 -68.23,29.72 -18.69,0 -35.47,-4.95 -50.49,-15.02 -15.02,-9.91 -27.17,-24.45 -36.44,-43.46 -13.42,-26.69 -21.25,-75.43 -23.33,-146.7 -0.64,-19.65 -1.27,-34.83 -1.91,-45.38 -1.92,-38.83 -10.39,-65.03 -25.57,-78.78 -15.18,-13.74 -44.1,-20.61 -86.61,-20.61l-43.14 0 0 264.46z"/>
   <path id="_12" class="fil1" d="M6962.23 9191.88c-12.78,11.19 -30.52,21.9 -53.37,32.28 -22.69,10.23 -36.91,17.1 -42.5,20.62 -15.34,9.58 -26.05,22.05 -32.12,37.39 -6.07,15.18 -9.11,42.34 -9.11,81.33 0,29.57 4.79,52.1 14.22,67.76 9.59,15.5 23.33,23.33 41.39,23.33 23.17,0 42.5,-12.95 58.16,-38.83 15.5,-25.89 23.33,-59.13 23.33,-100.03l0 -123.85zm2.88 215.57c-11.98,26.52 -27.96,47.14 -48.26,61.68 -20.29,14.54 -42.82,21.89 -67.75,21.89 -34.04,0 -62.48,-12.46 -85.49,-37.39 -22.85,-25.09 -34.36,-56.25 -34.36,-93.8 0,-36.43 9.43,-65.52 28.29,-87.25 18.85,-21.73 52.89,-40.75 102.27,-57.37l6.07 -2.39c44.26,-14.38 76.38,-29.25 96.35,-44.91l0 -63.27c0,-30.05 -6.39,-52.1 -19.01,-66.16 -12.63,-14.06 -32.44,-21.09 -59.6,-21.09 -18.06,0 -33.08,3.51 -45.23,10.7 -11.98,7.19 -17.89,16.14 -17.89,26.85 0,4.95 7.83,11.35 23.81,19.18 15.97,7.82 23.8,20.77 23.8,38.83 0,14.06 -5.11,26.2 -15.65,36.11 -10.39,10.07 -23.02,15.02 -37.72,15.02 -17.25,0 -31.16,-5.91 -41.7,-17.58 -10.71,-11.66 -15.98,-27 -15.98,-45.7 0,-30.2 12.94,-54.81 38.83,-73.5 26.04,-18.7 60.4,-28.13 103.07,-28.13 52.57,0 90.28,10.87 113.29,32.6 22.85,21.73 34.36,58.48 34.36,110.26l0 257.91c0,20.29 1.91,34.83 5.91,43.94 3.83,9.11 9.91,13.58 18.37,13.58 10.87,0 18.7,-7.03 23.33,-21.09 4.64,-13.9 7.04,-38.35 7.04,-72.87l22.05 0 0 20.14c0,35.31 -6.55,62 -19.66,80.22 -13.1,18.05 -32.44,27.16 -58,27.16 -22.53,0 -40.59,-7.03 -54.33,-21.09 -13.75,-14.06 -22.53,-35 -26.21,-62.48z"/>
   <path id="_13" class="fil1" d="M7147.44 9483.35l0 -22.05 15.02 0c19.33,0 31.95,-3.04 37.71,-9.11 5.75,-6.07 8.63,-20.93 8.63,-44.74l0 -519.82c0,-23.33 -2.88,-38.19 -8.63,-44.26 -5.76,-6.07 -18.38,-9.11 -37.71,-9.11l-15.02 0 0 -20.13 16.93 0c19.34,0 39.63,-0.64 61.05,-1.92 21.41,-1.28 43.94,-3.04 67.75,-5.59l0 275.17c10.23,-25.57 25.57,-45.87 45.86,-60.57 20.29,-14.7 42.82,-22.05 67.43,-22.05 36.76,0 63.6,12.47 80.22,37.55 16.78,24.93 25.09,66.16 25.09,123.68l0 247.05c0,23.81 2.87,38.67 8.47,44.74 5.59,6.07 18.05,9.11 37.39,9.11l13.58 0 0 22.05 -197.51 0 0 -22.05 7.52 0c19.33,0 31.79,-3.04 37.55,-9.11 5.75,-6.07 8.63,-20.93 8.63,-44.74l0 -298.02c0,-27.8 -3.68,-47.78 -11.19,-60.08 -7.51,-12.31 -19.49,-18.54 -36.11,-18.54 -25.89,0 -46.82,15.18 -62.8,45.7 -16.14,30.36 -24.13,70.79 -24.13,121.29l0 209.65c0,23.81 2.87,38.67 8.47,44.74 5.59,6.07 18.05,9.11 37.39,9.11l14.54 0 0 22.05 -206.13 0z"/>
   <path id="_14" class="fil1" d="M7607.48 9483.35l0 -22.05 15.5 0c19.34,0 31.8,-3.04 37.39,-9.11 5.6,-6.07 8.47,-21.09 8.47,-44.74l0 -323.11c0,-23.65 -2.87,-38.35 -8.47,-44.42 -5.59,-6.07 -18.05,-9.11 -37.39,-9.11l-15.5 0 0 -20.13c28.12,0 53.69,-0.64 76.54,-1.92 23.01,-1.28 44.27,-3.2 63.6,-5.75l0 72.86c12.78,-24.61 28.28,-43.62 46.66,-56.88 18.38,-13.27 38.19,-19.82 59.44,-19.82 24.93,0 45.87,6.71 63.12,20.14 17.1,13.42 29.25,32.91 36.44,58.48 11.5,-25.57 26.36,-45.06 44.74,-58.48 18.22,-13.43 38.99,-20.14 62,-20.14 37.23,0 64.08,12.47 80.7,37.39 16.46,24.93 24.76,66.16 24.76,123.52l0 247.37c0,23.65 2.88,38.67 8.63,44.74 5.76,6.07 18.22,9.11 37.24,9.11l13.58 0 0 22.05 -190.8 0 0 -22.05 3.84 0c16.78,0 28.28,-3.36 34.19,-9.91 5.92,-6.55 8.95,-21.09 8.95,-43.94l0 -298.34c0,-27.48 -3.35,-46.82 -10.22,-57.85 -6.88,-11.02 -18.22,-16.61 -33.88,-16.61 -26.85,0 -46.5,12.94 -58.96,38.67 -12.47,25.72 -18.7,67.11 -18.7,124.32l0 209.81c0,23.17 3.04,37.87 8.95,44.26 5.91,6.39 18.05,9.59 36.27,9.59l4.64 0 0 22.05 -186.01 0 0 -22.05 4.64 0c19.65,0 32.44,-3.2 38.35,-9.43 5.91,-6.23 8.79,-20.93 8.79,-44.42l0 -298.34c0,-27.48 -3.36,-46.82 -10.23,-57.85 -6.87,-11.02 -18.22,-16.61 -34.04,-16.61 -26.84,0 -46.34,12.94 -58.8,38.67 -12.46,25.72 -18.7,67.11 -18.7,124.32l0 209.81c0,23.49 2.88,38.19 8.63,44.42 5.76,6.23 16.94,9.43 33.72,9.43l3.67 0 0 22.05 -191.75 0z"/>
   <path id="_15" class="fil1" d="M8500.25 9191.88c-12.78,11.19 -30.52,21.9 -53.37,32.28 -22.69,10.23 -36.91,17.1 -42.5,20.62 -15.34,9.58 -26.05,22.05 -32.12,37.39 -6.07,15.18 -9.11,42.34 -9.11,81.33 0,29.57 4.79,52.1 14.22,67.76 9.59,15.5 23.33,23.33 41.39,23.33 23.17,0 42.5,-12.95 58.16,-38.83 15.5,-25.89 23.33,-59.13 23.33,-100.03l0 -123.85zm2.88 215.57c-11.98,26.52 -27.96,47.14 -48.26,61.68 -20.29,14.54 -42.82,21.89 -67.75,21.89 -34.04,0 -62.48,-12.46 -85.49,-37.39 -22.85,-25.09 -34.36,-56.25 -34.36,-93.8 0,-36.43 9.43,-65.52 28.29,-87.25 18.85,-21.73 52.89,-40.75 102.27,-57.37l6.07 -2.39c44.26,-14.38 76.38,-29.25 96.35,-44.91l0 -63.27c0,-30.05 -6.39,-52.1 -19.01,-66.16 -12.63,-14.06 -32.44,-21.09 -59.6,-21.09 -18.06,0 -33.08,3.51 -45.23,10.7 -11.98,7.19 -17.89,16.14 -17.89,26.85 0,4.95 7.83,11.35 23.81,19.18 15.97,7.82 23.8,20.77 23.8,38.83 0,14.06 -5.11,26.2 -15.65,36.11 -10.39,10.07 -23.02,15.02 -37.72,15.02 -17.25,0 -31.16,-5.91 -41.7,-17.58 -10.71,-11.66 -15.98,-27 -15.98,-45.7 0,-30.2 12.94,-54.81 38.83,-73.5 26.04,-18.7 60.4,-28.13 103.07,-28.13 52.57,0 90.28,10.87 113.29,32.6 22.85,21.73 34.36,58.48 34.36,110.26l0 257.91c0,20.29 1.91,34.83 5.91,43.94 3.83,9.11 9.91,13.58 18.37,13.58 10.87,0 18.7,-7.03 23.33,-21.09 4.64,-13.9 7.04,-38.35 7.04,-72.87l22.05 0 0 20.14c0,35.31 -6.55,62 -19.66,80.22 -13.1,18.05 -32.44,27.16 -58,27.16 -22.53,0 -40.59,-7.03 -54.33,-21.09 -13.75,-14.06 -22.53,-35 -26.21,-62.48z"/>
   <path id="_16" class="fil1" d="M8696.96 9483.35l0 -22.05 15.5 0c19.34,0 31.8,-3.04 37.39,-9.11 5.6,-6.07 8.47,-20.93 8.47,-44.74l0 -322.79c0,-23.49 -2.87,-38.35 -8.63,-44.74 -5.75,-6.39 -18.37,-10.07 -37.71,-11.03l-15.02 0 0 -18.21c28.12,0 53.69,-0.64 76.54,-1.92 23.01,-1.28 44.27,-3.2 63.6,-5.75l0 89.16c10.23,-28.6 26.21,-51.13 47.78,-67.91 21.41,-16.78 45.22,-25.09 71.11,-25.09 36.75,0 63.44,12.47 79.74,37.55 16.45,24.93 24.6,66.16 24.6,123.68l0 247.05c0,23.49 3.04,38.19 8.95,44.42 5.92,6.23 18.7,9.43 38.35,9.43l13.11 0 0 22.05 -198.47 0 0 -22.05 7.99 0c19.18,0 31.64,-3.04 37.23,-9.11 5.6,-6.07 8.47,-20.93 8.47,-44.74l0 -298.02c0,-28.44 -3.51,-48.58 -10.7,-60.56 -7.19,-11.99 -18.86,-18.06 -35.16,-18.06 -25.89,0 -46.82,15.18 -63.12,45.7 -16.14,30.36 -24.29,70.79 -24.29,121.29l0 209.65c0,23.81 2.88,38.67 8.63,44.74 5.76,6.07 18.38,9.11 37.71,9.11l13.11 0 0 22.05 -205.18 0z"/>
   <path class="fil1" d="M1878.36 11204.92c6.23,-34.04 19.17,-70.47 38.83,-109.3 19.65,-38.83 44.1,-76.22 73.34,-112.02 5.12,-6.23 12.95,-15.66 23.97,-28.12 31.48,-36.59 53.05,-66.16 65.04,-89.01 9.9,-18.37 17.26,-40.58 21.89,-66.79 4.63,-26.21 7.03,-57.05 7.03,-92.2 0,-51.78 -7.99,-90.45 -23.81,-115.69 -15.98,-25.25 -40.27,-37.87 -73.03,-37.87 -29.88,0 -55.76,12.14 -77.5,36.27 -21.89,24.13 -32.75,53.37 -32.75,87.73 0,14.22 2.23,26.04 6.71,34.99 4.63,9.11 10.06,13.58 16.62,13.58 3.19,0 10.7,-5.43 22.53,-16.3 11.82,-10.86 24.13,-16.29 36.91,-16.29 16.62,0 29.88,5.27 40.11,15.66 10.07,10.38 15.18,23.96 15.18,40.74 0,18.38 -6.71,33.88 -19.98,46.5 -13.26,12.63 -29.56,18.86 -48.89,18.86 -29.41,0 -53.05,-11.35 -70.95,-34.2 -18.06,-22.69 -27.01,-52.57 -27.01,-89.8 0,-47.94 15.82,-87.09 47.3,-117.29 31.48,-30.2 72.71,-45.38 123.68,-45.38 48.58,0 89.49,17.73 122.57,53.37 33.07,35.47 49.69,79.74 49.69,132.47 0,74.3 -50.65,156.12 -152.12,245.76 -6.87,5.92 -12.15,10.39 -15.82,13.43 -33.08,29.4 -59.13,56.4 -78.14,81.01 -19.18,24.61 -31.32,47.14 -36.59,67.44l176.25 0c31.8,0 53.85,-5.6 65.83,-16.78 12.15,-11.35 18.86,-32.44 20.46,-63.6l1.92 -34.68 24.28 0 -10.7 197.51 -332.85 0z"/>
   <path id="_1_0" class="fil1" d="M2402.8 10784.18l0 173.7c0,93.32 5.43,155.96 16.46,187.76 10.86,31.8 30.2,47.77 58.16,47.77 27.81,0 46.98,-15.81 57.85,-47.29 10.7,-31.48 16.14,-94.28 16.14,-188.24l0 -173.7c0,-94.28 -5.44,-157.24 -16.14,-188.72 -10.87,-31.48 -30.04,-47.3 -57.85,-47.3 -27.96,0 -47.3,15.98 -58.16,47.94 -11.03,32.12 -16.46,94.76 -16.46,188.08zm74.78 429.37c-50.49,0 -93.16,-31.96 -127.51,-96.04 -34.52,-63.92 -51.78,-146.05 -51.78,-246.24 0,-100.19 17.26,-182.49 51.78,-246.73 34.35,-64.39 77.02,-96.51 127.51,-96.51 50.18,0 92.52,32.44 126.88,97.15 34.36,64.72 51.45,146.86 51.45,246.09 0,98.91 -17.09,180.73 -51.45,245.28 -34.36,64.72 -76.7,97 -126.88,97z"/>
   <path id="_2_1" class="fil1" d="M2819.86 10784.18l0 173.7c0,93.32 5.43,155.96 16.46,187.76 10.86,31.8 30.2,47.77 58.16,47.77 27.81,0 46.98,-15.81 57.85,-47.29 10.7,-31.48 16.14,-94.28 16.14,-188.24l0 -173.7c0,-94.28 -5.44,-157.24 -16.14,-188.72 -10.87,-31.48 -30.04,-47.3 -57.85,-47.3 -27.96,0 -47.3,15.98 -58.16,47.94 -11.03,32.12 -16.46,94.76 -16.46,188.08zm74.78 429.37c-50.49,0 -93.16,-31.96 -127.51,-96.04 -34.52,-63.92 -51.78,-146.05 -51.78,-246.24 0,-100.19 17.26,-182.49 51.78,-246.73 34.35,-64.39 77.02,-96.51 127.51,-96.51 50.18,0 92.52,32.44 126.88,97.15 34.36,64.72 51.45,146.86 51.45,246.09 0,98.91 -17.09,180.73 -51.45,245.28 -34.36,64.72 -76.7,97 -126.88,97z"/>
   <path id="_3_2" class="fil1" d="M3331.68 10851.93c45.86,9.59 82.13,30.68 108.82,62.96 26.68,32.28 39.95,71.43 39.95,117.29 0,51.93 -17.58,95.08 -52.9,129.6 -35.31,34.51 -79.57,51.77 -132.95,51.77 -48.57,0 -89.16,-14.06 -121.44,-42.35 -32.28,-28.28 -48.42,-63.28 -48.42,-105.14 0,-27.49 7.51,-50.18 22.53,-68.07 14.86,-18.06 33.72,-27.01 56.09,-27.01 16.3,0 30.2,5.91 41.87,17.58 11.82,11.66 17.57,25.56 17.57,41.86 0,16.3 -5.27,29.41 -15.66,39.63 -10.38,10.07 -24.12,15.18 -41.06,15.18 -3.68,0 -8.79,-0.48 -15.34,-1.43 -6.55,-0.96 -11.03,-1.44 -13.11,-1.44 -4.47,0 -8.31,1.75 -11.5,5.43 -3.36,3.52 -4.96,7.51 -4.96,11.98 0,23.02 11.03,43.79 32.92,62.17 22.05,18.37 46.82,27.64 74.31,27.64 36.43,0 63.44,-12.94 81.17,-38.67 17.58,-25.73 26.37,-65.52 26.37,-119.53 0,-63.76 -6.07,-106.42 -18.06,-128.31 -11.98,-21.89 -33.07,-32.76 -63.28,-32.76 -5.59,0 -12.94,0.64 -22.05,1.92 -8.95,1.28 -15.34,1.75 -19.17,1.75 -7.35,0 -13.11,-1.43 -16.78,-4.47 -3.68,-2.88 -5.59,-7.35 -5.59,-13.42 0,-5.91 2.23,-10.55 6.55,-14.06 4.31,-3.52 10.22,-5.28 17.73,-5.28 3.52,0 9.59,0.48 18.38,1.44 8.63,0.96 15.66,1.44 20.93,1.44 25.09,0 42.67,-10.71 53.22,-31.96 10.38,-21.41 15.66,-59.12 15.66,-112.98 0,-49.69 -7.2,-85.81 -21.74,-108.5 -14.54,-22.85 -37.71,-34.19 -69.51,-34.19 -29.4,0 -54.81,8.79 -76.06,26.36 -21.41,17.74 -32.12,38.04 -32.12,61.05 0,6.55 1.6,11.82 4.64,15.98 3.19,3.99 7.03,6.07 11.82,6.07 0.8,0 5.75,-1.6 14.38,-4.96 8.79,-3.19 17.1,-4.95 24.93,-4.95 14.86,0 26.69,4.79 34.99,14.38 8.47,9.43 12.63,22.69 12.63,39.47 0,15.82 -5.75,29.24 -17.26,40.27 -11.5,10.87 -25.89,16.3 -42.98,16.3 -21.9,0 -39.95,-8.47 -54.17,-25.57 -14.39,-16.94 -21.58,-38.51 -21.58,-64.72 0,-39.31 15.02,-73.02 44.91,-101.31 29.88,-28.28 66.15,-42.34 108.5,-42.34 51.45,0 93.96,15.98 127.35,47.78 33.4,31.8 50.02,71.9 50.02,120.16 0,35.64 -11.51,67.28 -34.68,94.92 -23.01,27.49 -54.97,47.94 -95.87,61.04z"/>
   <path id="_4_3" class="fil1" d="M3653.98 10784.18l0 173.7c0,93.32 5.43,155.96 16.46,187.76 10.86,31.8 30.2,47.77 58.16,47.77 27.81,0 46.98,-15.81 57.85,-47.29 10.7,-31.48 16.14,-94.28 16.14,-188.24l0 -173.7c0,-94.28 -5.44,-157.24 -16.14,-188.72 -10.87,-31.48 -30.04,-47.3 -57.85,-47.3 -27.96,0 -47.3,15.98 -58.16,47.94 -11.03,32.12 -16.46,94.76 -16.46,188.08zm74.78 429.37c-50.49,0 -93.16,-31.96 -127.51,-96.04 -34.52,-63.92 -51.78,-146.05 -51.78,-246.24 0,-100.19 17.26,-182.49 51.78,-246.73 34.35,-64.39 77.02,-96.51 127.51,-96.51 50.18,0 92.52,32.44 126.88,97.15 34.36,64.72 51.45,146.86 51.45,246.09 0,98.91 -17.09,180.73 -51.45,245.28 -34.36,64.72 -76.7,97 -126.88,97z"/>
   <path id="_5_4" class="fil1" d="M4157.33 10970.98l0 -323.27 -151.81 323.27 151.81 0zm87.25 154.36c0,24.93 3.67,40.75 11.18,47.46 7.51,6.71 22.53,10.07 45.22,10.07l27.01 0 0 22.05 -253.12 0 0 -22.05 25.73 0c22.85,0 38.03,-3.36 45.54,-10.23 7.51,-6.87 11.19,-22.69 11.19,-47.3l0 -98.75 -188.88 0 0 -31.8 214.6 -458.13 61.53 0 0 434.32 83.41 0 0 55.61 -83.41 0 0 98.75z"/>
   <path id="_6_5" class="fil1" d="M4488.1 10784.18l0 173.7c0,93.32 5.43,155.96 16.46,187.76 10.86,31.8 30.2,47.77 58.16,47.77 27.81,0 46.98,-15.81 57.85,-47.29 10.7,-31.48 16.14,-94.28 16.14,-188.24l0 -173.7c0,-94.28 -5.44,-157.24 -16.14,-188.72 -10.87,-31.48 -30.04,-47.3 -57.85,-47.3 -27.96,0 -47.3,15.98 -58.16,47.94 -11.03,32.12 -16.46,94.76 -16.46,188.08zm74.78 429.37c-50.49,0 -93.16,-31.96 -127.51,-96.04 -34.52,-63.92 -51.78,-146.05 -51.78,-246.24 0,-100.19 17.26,-182.49 51.78,-246.73 34.35,-64.39 77.02,-96.51 127.51,-96.51 50.18,0 92.52,32.44 126.88,97.15 34.36,64.72 51.45,146.86 51.45,246.09 0,98.91 -17.09,180.73 -51.45,245.28 -34.36,64.72 -76.7,97 -126.88,97z"/>
   <path id="_7_6" class="fil1" d="M4905.16 10784.18l0 173.7c0,93.32 5.43,155.96 16.46,187.76 10.86,31.8 30.2,47.77 58.16,47.77 27.81,0 46.98,-15.81 57.85,-47.29 10.7,-31.48 16.14,-94.28 16.14,-188.24l0 -173.7c0,-94.28 -5.44,-157.24 -16.14,-188.72 -10.87,-31.48 -30.04,-47.3 -57.85,-47.3 -27.96,0 -47.3,15.98 -58.16,47.94 -11.03,32.12 -16.46,94.76 -16.46,188.08zm74.78 429.37c-50.49,0 -93.16,-31.96 -127.51,-96.04 -34.52,-63.92 -51.78,-146.05 -51.78,-246.24 0,-100.19 17.26,-182.49 51.78,-246.73 34.35,-64.39 77.02,-96.51 127.51,-96.51 50.18,0 92.52,32.44 126.88,97.15 34.36,64.72 51.45,146.86 51.45,246.09 0,98.91 -17.09,180.73 -51.45,245.28 -34.36,64.72 -76.7,97 -126.88,97z"/>
   <path id="_8_7" class="fil1" d="M5443.18 10815.98c21.89,-11.19 39.15,-28.76 51.78,-52.57 12.62,-23.97 19.01,-50.82 19.01,-80.86 0,-39.63 -10.38,-70.95 -31.16,-93.96 -20.77,-23.17 -49.06,-34.67 -84.69,-34.67 -35.31,0 -63.76,9.9 -85.49,29.72 -21.73,19.81 -32.6,45.54 -32.6,77.02 0,42.02 46.18,89.16 138.38,141.26 10.87,6.07 19.18,10.7 24.77,14.06zm-94.28 66.95c-27.32,19.98 -47.14,42.03 -59.28,66.32 -12.14,24.13 -18.22,53.85 -18.22,89.16 0,46.5 11.35,83.1 33.88,109.94 22.69,26.85 53.69,40.27 93,40.27 35.16,0 65.2,-11.66 89.96,-35.15 24.77,-23.33 37.24,-51.62 37.24,-84.7 0,-32.43 -10.39,-60.88 -31.16,-85.17 -20.78,-24.28 -69.19,-57.84 -145.42,-100.67zm-21.09 -14.54c-31.32,-20.45 -54.97,-44.9 -70.47,-73.02 -15.5,-27.97 -23.33,-60.25 -23.33,-96.36 0,-49.7 15.82,-90.44 47.46,-122.24 31.64,-31.8 72.07,-47.78 121.28,-47.78 45.87,0 83.42,14.38 112.5,43.3 29.24,28.92 43.78,66 43.78,111.22 0,30.84 -7.83,58.48 -23.65,82.61 -15.66,24.29 -39.31,45.54 -71.1,63.92 37.07,25.57 65.35,54.81 84.69,87.57 19.49,32.76 29.24,67.91 29.24,105.3 0,54.01 -18.06,99.4 -54.01,135.83 -35.96,36.59 -80.7,54.81 -133.91,54.81 -48.74,0 -89.96,-17.1 -123.68,-51.46 -33.88,-34.35 -50.82,-76.54 -50.82,-126.39 0,-33.72 9.11,-64.24 27.49,-91.57 18.38,-27.32 46.66,-52.57 84.53,-75.74z"/>
   <path id="_9_8" class="fil1" d="M5834.04 10851.93c45.86,9.59 82.13,30.68 108.82,62.96 26.68,32.28 39.95,71.43 39.95,117.29 0,51.93 -17.58,95.08 -52.9,129.6 -35.31,34.51 -79.57,51.77 -132.95,51.77 -48.57,0 -89.16,-14.06 -121.44,-42.35 -32.28,-28.28 -48.42,-63.28 -48.42,-105.14 0,-27.49 7.51,-50.18 22.53,-68.07 14.86,-18.06 33.72,-27.01 56.09,-27.01 16.3,0 30.2,5.91 41.87,17.58 11.82,11.66 17.57,25.56 17.57,41.86 0,16.3 -5.27,29.41 -15.66,39.63 -10.38,10.07 -24.12,15.18 -41.06,15.18 -3.68,0 -8.79,-0.48 -15.34,-1.43 -6.55,-0.96 -11.03,-1.44 -13.11,-1.44 -4.47,0 -8.31,1.75 -11.5,5.43 -3.36,3.52 -4.96,7.51 -4.96,11.98 0,23.02 11.03,43.79 32.92,62.17 22.05,18.37 46.82,27.64 74.31,27.64 36.43,0 63.44,-12.94 81.17,-38.67 17.58,-25.73 26.37,-65.52 26.37,-119.53 0,-63.76 -6.07,-106.42 -18.06,-128.31 -11.98,-21.89 -33.07,-32.76 -63.28,-32.76 -5.59,0 -12.94,0.64 -22.05,1.92 -8.95,1.28 -15.34,1.75 -19.17,1.75 -7.35,0 -13.11,-1.43 -16.78,-4.47 -3.68,-2.88 -5.59,-7.35 -5.59,-13.42 0,-5.91 2.23,-10.55 6.55,-14.06 4.31,-3.52 10.22,-5.28 17.73,-5.28 3.52,0 9.59,0.48 18.38,1.44 8.63,0.96 15.66,1.44 20.93,1.44 25.09,0 42.67,-10.71 53.22,-31.96 10.38,-21.41 15.66,-59.12 15.66,-112.98 0,-49.69 -7.2,-85.81 -21.74,-108.5 -14.54,-22.85 -37.71,-34.19 -69.51,-34.19 -29.4,0 -54.81,8.79 -76.06,26.36 -21.41,17.74 -32.12,38.04 -32.12,61.05 0,6.55 1.6,11.82 4.64,15.98 3.19,3.99 7.03,6.07 11.82,6.07 0.8,0 5.75,-1.6 14.38,-4.96 8.79,-3.19 17.1,-4.95 24.93,-4.95 14.86,0 26.69,4.79 34.99,14.38 8.47,9.43 12.63,22.69 12.63,39.47 0,15.82 -5.75,29.24 -17.26,40.27 -11.5,10.87 -25.89,16.3 -42.98,16.3 -21.9,0 -39.95,-8.47 -54.17,-25.57 -14.39,-16.94 -21.58,-38.51 -21.58,-64.72 0,-39.31 15.02,-73.02 44.91,-101.31 29.88,-28.28 66.15,-42.34 108.5,-42.34 51.45,0 93.96,15.98 127.35,47.78 33.4,31.8 50.02,71.9 50.02,120.16 0,35.64 -11.51,67.28 -34.68,94.92 -23.01,27.49 -54.97,47.94 -95.87,61.04z"/>
  </g>
 </g>
</svg>
